# xmcd
#
# Track frame offsets:
#	150
#	32257
#	57390
#	94645
#	110315
#	135420
#	160330
#	191297
#	215927
#
# Disc length: 3319
#
# Revision: 1
# Processed by: cddbd v1.5.1PL0 Copyright (c) Steve Scherf et al.
# Submitted via: CDex 1.50
# Normalized: r0:DSETVAR1,TDELIM( - )
#
DISCID=720cf509
DTITLE=Various Artist - City Swing CD Sampler 3
DYEAR=1900
DGENRE=Jazz
TTITLE0=Slide Hampton - Impossible Waltz
TTITLE1=Mike Longo - Like A Thief In The Night
TTITLE2=McCoy Tyner - The Natureal Bridge
TTITLE3=Thelonious Monk - Smoke Gets In Your Eyes
TTITLE4=Hank Jones - Caravan
TTITLE5=Lucky Thompson - Tea Time
TTITLE6=Bucky Pizzarelli - Azure'te
TTITLE7=Jimmy Ponder - Love Me Right
TTITLE8=Illinois Jacquet - Loot To Boot
EXTD=
EXTT0=
EXTT1=
EXTT2=
EXTT3=
EXTT4=
EXTT5=
EXTT6=
EXTT7=
EXTT8=
PLAYORDER=
